:version 1.10
:name ASF
:units
  mass 1
  length 1
  angle deg
:documentation
  ASF file generated by Kaydara
:root
  axis xyz
  order  tx ty tz rx ry rz
  position 0 0 0
  orientation 0 0 0
:bonedata
  begin
    id 1
    name RightUpLegDummy
    direction -0.65628 -0.754516 0.00165102
    length 4.76918
    axis 0 0 0 xyz
  end
  begin
    id 2
    name RightUpLeg
    direction -0.145584 -0.923362 0.355256
    length 17.9961
    axis -24.7611 -13.1006 1.78531 xyz
    dof rx ry rz
  end
  begin
    id 3
    name RightLeg
    direction 0.263379 0.172355 -0.949171
    length 13.3386
    axis 89.6202 -21.1929 12.3855 xyz
    dof rx ry rz
  end
  begin
    id 4
    name RightFoot
    direction 0.224283 -0.968777 -0.105675
    length 5.86697
    axis 56.995 -39.6905 17.3365 xyz
    dof rx ry rz
  end
  begin
    id 5
    name RightToes
    direction -0.0806345 -0.9037 0.420506
    length 4.75197
    axis 146.825 -39.7828 17.6019 xyz
    dof rx ry rz
  end
  begin
    id 6
    name SpineDummy
    direction -3.39852e-014 1 9.33296e-014
    length 8.13779
    axis 0 0 0 xyz
  end
  begin
    id 7
    name Spine
    direction -0.156609 0.733703 0.661176
    length 7.14978
    axis 41.2365 5.68757 17.0844 xyz
    dof rx ry rz
  end
  begin
    id 8
    name Spine1
    direction 0 0 0
    length 0
    axis 42.8809 47.8308 -3.36039 xyz
    dof rx ry rz
  end
  begin
    id 9
    name HEadDummy
    direction 0.546431 0.701947 0.456819
    length 3.55512
    axis 42.8809 47.8308 -3.36039 xyz
  end
  begin
    id 10
    name HEad
    direction 0.23444 0.828559 0.508457
    length 7.35827
    axis 51.1864 49.2662 27.4903 xyz
    dof rx ry rz
  end
  begin
    id 11
    name LeftShoulder1Dummy
    direction 0.431183 0.475873 -0.766568
    length 2.49352
    axis 42.8809 47.8308 -3.36039 xyz
  end
  begin
    id 12
    name LeftShoulder1
    direction 0.268187 -0.383402 -0.883786
    length 4.48604
    axis -119.517 0.106469 35.1736 xyz
    dof rx ry rz
  end
  begin
    id 13
    name LeftArm
    direction 0.380567 -0.703221 -0.600541
    length 10.1142
    axis -5.41825 36.2925 7.8293 xyz
    dof rx ry rz
  end
  begin
    id 14
    name LeftForeArm
    direction 0.541071 -0.732356 -0.413396
    length 9.39839
    axis 4.65387 33.7604 7.81644 xyz
    dof rx ry rz
  end
  begin
    id 15
    name LeftHand
    direction 0.847511 -0.389379 -0.360707
    length 3.66142
    axis 7.65593 21.1436 -24.6758 xyz
    dof rx ry rz
  end
  begin
    id 16
    name RightShoulderDummy
    direction -0.692546 0.541855 0.476208
    length 2.49352
    axis 42.8809 47.8308 -3.36039 xyz
  end
  begin
    id 17
    name RightShoulder
    direction -0.870808 -0.316653 0.376065
    length 4.48602
    axis 141.571 51.133 -100.254 xyz
    dof rx ry rz
  end
  begin
    id 18
    name RightArm
    direction 0.366897 -0.87275 0.322015
    length 10.1142
    axis 92.3258 71.2036 138.917 xyz
    dof rx ry rz
  end
  begin
    id 19
    name RightForeArm
    direction 0.702487 -0.694568 0.155197
    length 9.39835
    axis 153.863 41.5092 -176.604 xyz
    dof rx ry rz
  end
  begin
    id 20
    name RightHand
    direction 0.79502 -0.601276 0.0800636
    length 3.66142
    axis 154.247 4.59222 142.9 xyz
    dof rx ry rz
  end
  begin
    id 21
    name LeftUpLegDummy
    direction 0.65628 -0.754516 0.00165102
    length 4.76919
    axis 0 0 0 xyz
  end
  begin
    id 22
    name LeftUpLeg
    direction -0.1277 -0.689368 0.713067
    length 17.9961
    axis -48.3385 -17.8675 0.791927 xyz
    dof rx ry rz
  end
  begin
    id 23
    name LeftLeg
    direction 0.109849 -0.991246 -0.0732378
    length 13.3386
    axis -2.05791 -7.30784 1.72042 xyz
    dof rx ry rz
  end
  begin
    id 24
    name LeftFoot
    direction 0.0448355 -0.272614 0.961078
    length 5.86697
    axis -18.7733 -7.89606 10.2113 xyz
    dof rx ry rz
  end
  begin
    id 25
    name LeftToes
    direction -0.18506 0.293668 0.937823
    length 4.75197
    axis 71.2267 -7.89606 10.2113 xyz
    dof rx ry rz
  end
:hierarchy
  begin
    root RightUpLegDummy SpineDummy LeftUpLegDummy
    RightUpLegDummy RightUpLeg
    RightUpLeg RightLeg
    RightLeg RightFoot
    RightFoot RightToes
    SpineDummy Spine
    Spine Spine1
    Spine1 HEadDummy LeftShoulder1Dummy RightShoulderDummy
    HEadDummy HEad
    LeftShoulder1Dummy LeftShoulder1
    LeftShoulder1 LeftArm
    LeftArm LeftForeArm
    LeftForeArm LeftHand
    RightShoulderDummy RightShoulder
    RightShoulder RightArm
    RightArm RightForeArm
    RightForeArm RightHand
    LeftUpLegDummy LeftUpLeg
    LeftUpLeg LeftLeg
    LeftLeg LeftFoot
    LeftFoot LeftToes
  end

:SAMPLES-PER-SECOND 30
:FULLY-SPECIFIED
:DEGREES
77
root  0.298953 37.5545 -4.4646 176.751 -54.2832 -179.123
RightUpLeg  22.0408 14.2721 20.5994
RightLeg  -79.8709 -14.9758 5.35342
RightFoot  6.33672 8.41955 -20.4175
RightToes  -1.27222e-014 -6.36111e-015 6.36111e-015
Spine  -26.591 -1.70063 2.09118
Spine1  1.75388 -7.2214 25.0783
HEad  9.18182 -32.4727 -21.4375
LeftShoulder1  6.36111e-015 -1.33558e-015 6.49777e-015
LeftArm  35.614 -12.9564 2.79871
LeftForeArm  0.41823 -29.5883 -0.597911
LeftHand  0.73017 4.09825 -7.06089
RightShoulder  -4.77083e-015 -6.36111e-015 -3.18055e-015
RightArm  46.0483 23.6451 -18.5522
RightForeArm  -9.30226 -3.56222 -8.98264
RightHand  0.256735 1.63128 -4.63424
LeftUpLeg  12.2871 21.1626 14.7696
LeftLeg  -19.755 -3.4908 -2.13069
LeftFoot  16.4024 4.01212 -8.82456
LeftToes  1.27222e-014 -5.20697e-012 1.80337e-011
78
root  0.475247 37.5863 -4.47435 -174.935 -56.5672 171.281
RightUpLeg  15.1593 16.3679 15.3903
RightLeg  -69.4909 -17.9521 6.81678
RightFoot  12.7968 6.53094 -17.5492
RightToes  -1.27222e-014 -6.36111e-015 6.36111e-015
Spine  -23.2593 -5.42444 -3.10208
Spine1  1.95687 -7.00006 23.0553
HEad  12.1831 -29.1633 -21.7261
LeftShoulder1  6.36111e-015 -1.33558e-015 6.49777e-015
LeftArm  34.72 -8.5432 0.235171
LeftForeArm  -0.865033 -30.7449 -0.021066
LeftHand  -0.182474 1.6531 -8.39308
RightShoulder  -4.77083e-015 -6.36111e-015 -3.18055e-015
RightArm  51.6204 16.8947 -17.0151
RightForeArm  -10.2029 -4.72106 -8.84189
RightHand  -0.230724 2.87542 -2.54264
LeftUpLeg  11.3867 25.7584 10.7495
LeftLeg  -15.5218 -4.25396 -1.623
LeftFoot  15.2338 4.133 -9.32537
LeftToes  1.27222e-014 -5.20697e-012 1.80337e-011
79
root  0.562091 37.573 -4.51672 -164.779 -58.2975 158.879
RightUpLeg  7.51436 18.1164 9.01449
RightLeg  -59.3227 -22.5479 8.96759
RightFoot  22.2659 6.09523 -18.0913
RightToes  -1.27222e-014 -6.36111e-015 6.36111e-015
Spine  -19.1409 -10.3624 -9.4081
Spine1  3.15001 -7.55676 22.3126
HEad  13.507 -26.1459 -21.4564
LeftShoulder1  6.36111e-015 -1.33558e-015 6.49777e-015
LeftArm  36.4947 -4.60606 -5.01189
LeftForeArm  -3.2741 -30.3597 0.589733
LeftHand  -1.41767 -2.04305 -9.9146
RightShoulder  -4.77083e-015 -6.36111e-015 -3.18055e-015
RightArm  55.2206 8.72478 -15.5869
RightForeArm  -14.1748 -4.70846 -10.0254
RightHand  -0.481805 3.74058 -1.71121
LeftUpLeg  11.296 30.8794 6.14977
LeftLeg  -9.79605 -4.16961 -1.21979
LeftFoot  14.7024 3.93757 -8.99657
LeftToes  1.27222e-014 -5.20697e-012 1.80337e-011
80
root  0.491452 37.2088 -4.60087 -157.292 -60.2934 149.434
RightUpLeg  1.07651 18.2551 5.76363
RightLeg  -49.7258 -29.0701 11.0081
RightFoot  27.1209 7.09436 -20.0146
RightToes  -1.27222e-014 -6.36111e-015 6.36111e-015
Spine  -16.7474 -13.3886 -12.3915
Spine1  6.80694 -8.17073 20.8867
HEad  12.8859 -23.9367 -20.2887
LeftShoulder1  6.36111e-015 -1.33558e-015 6.49777e-015
LeftArm  37.5091 -2.30391 -11.2676
LeftForeArm  -2.50837 -31.7035 0.661473
LeftHand  -1.90437 -3.73151 -9.62297
RightShoulder  -4.77083e-015 -6.36111e-015 -3.18055e-015
RightArm  57.4164 0.773067 -14.2008
RightForeArm  -18.0396 -0.964315 -12.9032
RightHand  -0.678902 4.70326 -1.55649
LeftUpLeg  12.8099 33.165 3.84988
LeftLeg  -2.98096 -4.23081 -0.795263
LeftFoot  13.0497 3.79254 -9.00276
LeftToes  1.27222e-014 -5.20697e-012 1.80337e-011
81
root  0.25202 36.4997 -4.75364 -151.597 -63.2047 143.032
RightUpLeg  -4.01479 16.5822 5.88133
RightLeg  -38.4272 -35.113 9.73576
RightFoot  24.9198 7.37763 -20.2291
RightToes  -1.27222e-014 -6.36111e-015 6.36111e-015
Spine  -16.8208 -14.5623 -12.2787
Spine1  10.8018 -8.55622 19.2462
HEad  12.2884 -22.7434 -18.6121
LeftShoulder1  6.36111e-015 -1.33558e-015 6.49777e-015
LeftArm  37.2576 -1.02171 -17.2713
LeftForeArm  0.00538401 -33.129 0.168782
LeftHand  -1.55887 -2.87886 -7.91595
RightShoulder  -4.77083e-015 -6.36111e-015 -3.18055e-015
RightArm  58.42 -7.42408 -13.2775
RightForeArm  -21.7389 6.16612 -18.2963
RightHand  -0.86125 5.68332 -1.60345
LeftUpLeg  15.505 33.0978 4.02715
LeftLeg  2.07308 -7.17593 -0.987816
LeftFoot  8.09401 3.53696 -9.47421
LeftToes  1.27222e-014 -5.20697e-012 1.80337e-011
82
root  0.0337324 35.6093 -4.96628 -142.809 -66.4359 134.243
RightUpLeg  -8.59987 13.6648 6.14133
RightLeg  -24.6508 -36.3022 4.22884
RightFoot  20.7082 6.27224 -18.1685
RightToes  -1.27222e-014 -6.36111e-015 6.36111e-015
Spine  -17.0021 -16.1459 -12.878
Spine1  12.7579 -9.45573 19.154
HEad  12.5334 -22.3909 -17.0092
LeftShoulder1  6.36111e-015 -1.33558e-015 6.49777e-015
LeftArm  35.8936 1.49498 -21.5904
LeftForeArm  1.63738 -32.3989 -0.50655
LeftHand  -0.928003 -1.16462 -6.60557
RightShoulder  -4.77083e-015 -6.36111e-015 -3.18055e-015
RightArm  58.8774 -15.5042 -12.2197
RightForeArm  -28.0033 13.0907 -26.241
RightHand  -0.854324 5.78695 -1.94647
LeftUpLeg  16.3589 32.8186 3.52487
LeftLeg  5.47399 -12.6458 -2.16626
LeftFoot  1.28712 2.96215 -9.5683
LeftToes  1.27222e-014 -5.20697e-012 1.80337e-011
83
root  0.00426788 34.7146 -5.21607 -129.365 -68.7333 120.701
RightUpLeg  -12.3034 10.3183 5.02359
RightLeg  -12.6078 -32.5857 -0.760675
RightFoot  18.7381 4.97546 -15.8586
RightToes  -1.27222e-014 -6.36111e-015 6.36111e-015
Spine  -15.8747 -18.4733 -15.195
Spine1  13.4334 -10.7051 20.9141
HEad  12.1136 -23.1563 -15.6405
LeftShoulder1  6.36111e-015 -1.33558e-015 6.49777e-015
LeftArm  32.0227 6.27202 -23.5424
LeftForeArm  3.13317 -30.2284 -1.33471
LeftHand  -0.581819 -0.142315 -6.44924
RightShoulder  -4.77083e-015 -6.36111e-015 -3.18055e-015
RightArm  58.0191 -22.8241 -10.8839
RightForeArm  -36.2047 18.6896 -36.6565
RightHand  -0.679235 5.11373 -2.48024
LeftUpLeg  13.908 32.6792 0.474912
LeftLeg  9.32286 -16.8815 -3.74909
LeftFoot  -3.09048 2.41883 -8.9605
LeftToes  1.27222e-014 -5.20697e-012 1.80337e-011
84
root  0.138405 34.1155 -5.50946 -118.323 -69.8611 109.688
RightUpLeg  -13.4002 7.49716 4.0145
RightLeg  -6.01124 -29.0376 -2.68833
RightFoot  17.8596 4.33841 -14.6827
RightToes  -1.27222e-014 -6.36111e-015 6.36111e-015
Spine  -14.6497 -19.2491 -16.7422
Spine1  14.6136 -10.8336 22.8626
HEad  10.4755 -25.5409 -14.2632
LeftShoulder1  6.36111e-015 -1.33558e-015 6.49777e-015
LeftArm  25.2704 12.1236 -23.2274
LeftForeArm  7.15422 -29.7466 -3.96317
LeftHand  -0.586396 -0.0112623 -7.03408
RightShoulder  -4.77083e-015 -6.36111e-015 -3.18055e-015
RightArm  53.7517 -28.5759 -7.84495
RightForeArm  -41.9698 23.7393 -48.072
RightHand  -0.480635 4.36332 -3.03128
LeftUpLeg  10.5068 31.2374 -2.90403
LeftLeg  12.7072 -17.0695 -4.48225
LeftFoot  -3.75344 2.24909 -8.51443
LeftToes  1.27222e-014 -5.20697e-012 1.80337e-011
85
root  0.355328 34.1211 -5.87594 -116.653 -71.0663 109
RightUpLeg  -11.5024 6.46533 3.99177
RightLeg  -5.59301 -28.3332 -2.76697
RightFoot  16.8958 4.34377 -14.5033
RightToes  -1.27222e-014 -6.36111e-015 6.36111e-015
Spine  -14.5523 -17.5113 -16.2034
Spine1  15.6382 -9.30777 23.1985
HEad  9.70637 -29.215 -12.6679
LeftShoulder1  6.36111e-015 -1.33558e-015 6.49777e-015
LeftArm  20.6786 14.7225 -24.1901
LeftForeArm  11.4504 -30.0436 -7.14769
LeftHand  -0.811228 -0.519359 -7.83835
RightShoulder  -4.77083e-015 -6.36111e-015 -3.18055e-015
RightArm  45.6584 -30.4269 -1.58067
RightForeArm  -43.009 27.9261 -55.7572
RightHand  -0.158072 3.1893 -3.86718
LeftUpLeg  8.90089 27.9533 -3.54614
LeftLeg  12.8466 -14.9326 -3.79876
LeftFoot  -2.67082 2.54317 -9.29405
LeftToes  1.27222e-014 -5.20697e-012 1.80337e-011
86
root  0.600358 34.6514 -6.29646 -124.132 -72.2818 118.735
RightUpLeg  -8.40369 7.94916 3.75488
RightLeg  -10.5672 -29.3036 -1.55401
RightFoot  16.8808 4.70771 -15.0973
RightToes  -1.27222e-014 -6.36111e-015 6.36111e-015
Spine  -14.9624 -14.6716 -15.0743
Spine1  14.6728 -7.12363 21.9722
HEad  11.345 -33.138 -11.1624
LeftShoulder1  6.36111e-015 -1.33558e-015 6.49777e-015
LeftArm  22.4837 12.213 -27.6862
LeftForeArm  12.0626 -30.7844 -7.83716
LeftHand  -1.12146 -1.35 -8.55805
RightShoulder  -4.77083e-015 -6.36111e-015 -3.18055e-015
RightArm  37.806 -26.6727 5.48038
RightForeArm  -41.6342 29.0676 -55.8607
RightHand  0.508366 1.05822 -5.68778
LeftUpLeg  8.74914 23.1914 -2.03834
LeftLeg  9.55097 -12.1061 -2.46882
LeftFoot  -1.61967 3.14487 -11.1157
LeftToes  1.27222e-014 -5.20697e-012 1.80337e-011
87
root  0.835778 35.3249 -6.73024 -137.539 -72.7523 134.814
RightUpLeg  -5.01032 11.0658 2.73457
RightLeg  -19.2769 -30.6403 0.996307
RightFoot  17.0882 5.12056 -15.8115
RightToes  -1.27222e-014 -6.36111e-015 6.36111e-015
Spine  -15.2705 -11.6411 -14.0557
Spine1  12.0686 -5.06176 20.4731
HEad  13.7579 -36.7205 -10.0088
LeftShoulder1  6.36111e-015 -1.33558e-015 6.49777e-015
LeftArm  28.6897 9.52693 -31.4196
LeftForeArm  8.73992 -33.4808 -3.73033
LeftHand  -1.29196 -1.88431 -8.65105
RightShoulder  -4.77083e-015 -6.36111e-015 -3.18055e-015
RightArm  33.3918 -19.26 10.2712
RightForeArm  -40.4085 26.7753 -50.9523
RightHand  1.29381 -0.95893 -8.05422
LeftUpLeg  9.17678 17.3318 0.211586
LeftLeg  5.47465 -8.04281 -1.19097
LeftFoot  -0.679122 3.7688 -12.9277
LeftToes  1.27222e-014 -5.20697e-012 1.80337e-011
88
root  1.02816 35.8689 -7.1218 -154.63 -72.1268 153.802
RightUpLeg  -0.685751 14.1379 1.67642
RightLeg  -31.9894 -33.1624 6.08072
RightFoot  15.9873 5.63094 -16.4745
RightToes  -1.27222e-014 -6.36111e-015 6.36111e-015
Spine  -15.8799 -7.99935 -12.067
Spine1  9.82097 -2.97593 19.4884
HEad  14.7021 -40.2195 -8.945
LeftShoulder1  6.36111e-015 -1.33558e-015 6.49777e-015
LeftArm  30.8677 13.0296 -26.5968
LeftForeArm  7.99064 -41.3833 -1.47746
LeftHand  -1.25819 -1.85755 -8.24517
RightShoulder  -4.77083e-015 -6.36111e-015 -3.18055e-015
RightArm  31.1934 -11.1655 12.2123
RightForeArm  -38.583 24.3984 -45.753
RightHand  1.48641 -1.4714 -8.51272
LeftUpLeg  10.554 11.6304 3.6745
LeftLeg  3.15487 -3.56342 -0.362558
LeftFoot  0.260854 4.1707 -13.8894
LeftToes  1.27222e-014 -5.20697e-012 1.80337e-011
